<?xml version="1.0" standalone="no"?>
<!DOCTYPE svg PUBLIC "-//W3C//DTD SVG 20010904//EN"
 "http://www.w3.org/TR/2001/REC-SVG-20010904/DTD/svg10.dtd">
<svg version="1.0" xmlns="http://www.w3.org/2000/svg"
 width="512.000000pt" height="160.000000pt" viewBox="0 0 512.000000 160.000000"
 preserveAspectRatio="xMidYMid meet">

<g transform="translate(0.000000,160.000000) scale(0.100000,-0.100000)"
fill="#000000" stroke="none">
<path d="M635 1566 c-27 -12 -67 -41 -87 -64 -23 -25 -98 -164 -201 -369 -233
-464 -325 -669 -335 -740 -21 -157 50 -288 195 -355 59 -28 71 -30 148 -26
112 6 202 49 309 149 l76 71 76 -71 c49 -46 103 -84 152 -108 72 -36 81 -38
171 -38 82 0 103 4 146 24 133 66 216 229 188 365 -15 70 -132 326 -339 736
-173 345 -205 393 -288 431 -59 27 -148 25 -211 -5z m181 -85 c23 -10 53 -34
67 -52 35 -46 152 -274 298 -579 199 -418 202 -425 203 -505 1 -147 -95 -244
-244 -245 -84 0 -161 35 -258 119 -72 62 -85 88 -57 111 29 24 120 177 147
247 52 134 48 226 -15 319 -88 132 -303 143 -413 22 -49 -55 -64 -95 -64 -178
0 -114 50 -236 156 -380 l47 -64 -70 -67 c-93 -88 -180 -131 -265 -132 -192
-1 -297 165 -224 355 60 159 430 905 483 977 29 37 93 71 138 71 17 0 49 -9
71 -19z m17 -589 c98 -57 108 -176 27 -337 -41 -83 -104 -175 -119 -175 -14 0
-90 115 -128 195 -78 164 -48 296 76 336 36 12 109 2 144 -19z"/>
<path d="M2553 1285 c-91 -39 -59 -185 42 -185 27 0 44 8 66 29 52 53 33 135
-38 162 -30 11 -31 11 -70 -6z"/>
<path d="M3200 855 l0 -445 54 0 c67 0 86 7 86 31 0 18 3 17 41 -8 84 -56 227
-38 315 40 65 57 96 124 102 218 6 109 -15 168 -87 239 -94 93 -210 116 -315
61 l-56 -30 0 170 0 169 -70 0 -70 0 0 -445z m355 16 c80 -36 114 -104 101
-196 -19 -126 -186 -186 -290 -104 -25 20 -26 23 -26 138 0 130 2 136 70 165
47 20 97 19 145 -3z"/>
<path d="M4510 855 l0 -446 68 3 c61 3 67 5 70 26 4 24 17 29 28 11 13 -22 90
-49 140 -49 81 0 142 26 205 89 66 66 89 124 89 221 0 98 -23 155 -90 222 -62
62 -125 88 -209 88 -46 0 -122 -28 -135 -49 -20 -32 -26 2 -26 159 l0 170 -70
0 -70 0 0 -445z m376 8 c91 -47 113 -194 41 -271 -35 -38 -78 -55 -138 -55
-59 0 -121 27 -133 59 -3 9 -6 64 -6 124 0 108 0 109 29 129 16 12 39 25 52
31 35 14 111 6 155 -17z"/>
<path d="M2017 1006 c-136 -49 -216 -175 -204 -323 12 -155 123 -269 274 -281
66 -5 139 14 164 44 10 12 13 11 23 -8 10 -20 20 -23 79 -26 l67 -3 0 301 0
301 -67 -3 c-59 -3 -69 -6 -79 -26 -8 -16 -14 -20 -19 -12 -27 43 -161 63
-238 36z m180 -131 c71 -30 73 -35 73 -166 l0 -117 -30 -26 c-76 -64 -220 -34
-266 56 -21 40 -21 136 0 176 38 74 144 110 223 77z"/>
<path d="M2984 1001 c-23 -10 -45 -24 -48 -30 -11 -18 -24 -13 -28 12 -3 20
-9 22 -70 25 l-68 3 0 -301 0 -300 75 0 75 0 2 218 3 217 45 23 c34 17 58 22
98 20 l52 -3 0 68 0 67 -47 0 c-27 0 -67 -9 -89 -19z"/>
<path d="M4084 1001 c-23 -10 -45 -24 -48 -30 -11 -17 -26 -13 -26 8 0 24 -19
31 -81 31 l-49 0 0 -300 0 -300 70 0 70 0 0 215 0 214 45 27 c39 22 54 26 101
22 39 -3 62 -11 77 -27 21 -21 22 -31 25 -236 l3 -215 75 0 74 0 0 195 c0 236
-8 283 -62 341 -66 71 -185 95 -274 55z"/>
<path d="M2520 710 l0 -300 75 0 75 0 0 300 0 300 -75 0 -75 0 0 -300z"/>
</g>
</svg>
